<mxfile host="Electron" agent="Mozilla/5.0 (Windows NT 10.0; Win64; x64) AppleWebKit/537.36 (KHTML, like Gecko) draw.io/24.7.17 Chrome/128.0.6613.36 Electron/32.0.1 Safari/537.36" version="24.7.17">
  <diagram name="Página-1" id="xKHydOMpyiM7R2uuFy8y">
    <mxGraphModel dx="880" dy="532" grid="1" gridSize="10" guides="1" tooltips="1" connect="1" arrows="1" fold="1" page="1" pageScale="1" pageWidth="827" pageHeight="1169" math="0" shadow="0">
      <root>
        <mxCell id="0" />
        <mxCell id="1" parent="0" />
        <mxCell id="AKbCDTZjzxve1V6x1qqr-2" value="" style="swimlane;startSize=0;" vertex="1" parent="1">
          <mxGeometry x="160" y="40" width="520" height="490" as="geometry" />
        </mxCell>
        <mxCell id="AKbCDTZjzxve1V6x1qqr-6" value="Realizar&lt;div&gt;Pago&lt;/div&gt;" style="ellipse;whiteSpace=wrap;html=1;" vertex="1" parent="AKbCDTZjzxve1V6x1qqr-2">
          <mxGeometry x="60" y="40" width="100" height="70" as="geometry" />
        </mxCell>
        <mxCell id="AKbCDTZjzxve1V6x1qqr-17" style="edgeStyle=orthogonalEdgeStyle;rounded=0;orthogonalLoop=1;jettySize=auto;html=1;entryX=1;entryY=0.5;entryDx=0;entryDy=0;curved=1;" edge="1" parent="AKbCDTZjzxve1V6x1qqr-2" source="AKbCDTZjzxve1V6x1qqr-7" target="AKbCDTZjzxve1V6x1qqr-6">
          <mxGeometry relative="1" as="geometry" />
        </mxCell>
        <mxCell id="AKbCDTZjzxve1V6x1qqr-7" value="Recuperar&lt;div&gt;Datos&amp;nbsp;&lt;/div&gt;" style="ellipse;whiteSpace=wrap;html=1;" vertex="1" parent="AKbCDTZjzxve1V6x1qqr-2">
          <mxGeometry x="360" y="60" width="100" height="70" as="geometry" />
        </mxCell>
        <mxCell id="AKbCDTZjzxve1V6x1qqr-12" style="edgeStyle=orthogonalEdgeStyle;rounded=0;orthogonalLoop=1;jettySize=auto;html=1;entryX=0;entryY=0.5;entryDx=0;entryDy=0;curved=1;endArrow=none;endFill=0;startArrow=classic;startFill=1;" edge="1" parent="AKbCDTZjzxve1V6x1qqr-2" source="AKbCDTZjzxve1V6x1qqr-8" target="AKbCDTZjzxve1V6x1qqr-9">
          <mxGeometry relative="1" as="geometry" />
        </mxCell>
        <mxCell id="AKbCDTZjzxve1V6x1qqr-8" value="Registrar Pago" style="ellipse;whiteSpace=wrap;html=1;" vertex="1" parent="AKbCDTZjzxve1V6x1qqr-2">
          <mxGeometry x="70" y="240" width="100" height="70" as="geometry" />
        </mxCell>
        <mxCell id="AKbCDTZjzxve1V6x1qqr-9" value="Enviar&lt;div&gt;Cobros&lt;/div&gt;" style="ellipse;whiteSpace=wrap;html=1;" vertex="1" parent="AKbCDTZjzxve1V6x1qqr-2">
          <mxGeometry x="340" y="260" width="100" height="70" as="geometry" />
        </mxCell>
        <mxCell id="AKbCDTZjzxve1V6x1qqr-10" value="Listar&lt;div&gt;Estadisticas&lt;/div&gt;" style="ellipse;whiteSpace=wrap;html=1;" vertex="1" parent="AKbCDTZjzxve1V6x1qqr-2">
          <mxGeometry x="60" y="350" width="100" height="70" as="geometry" />
        </mxCell>
        <mxCell id="AKbCDTZjzxve1V6x1qqr-16" style="edgeStyle=orthogonalEdgeStyle;rounded=0;orthogonalLoop=1;jettySize=auto;html=1;entryX=0;entryY=0.5;entryDx=0;entryDy=0;" edge="1" parent="1" source="AKbCDTZjzxve1V6x1qqr-3" target="AKbCDTZjzxve1V6x1qqr-6">
          <mxGeometry relative="1" as="geometry" />
        </mxCell>
        <mxCell id="AKbCDTZjzxve1V6x1qqr-3" value="Empleado" style="shape=umlActor;verticalLabelPosition=bottom;verticalAlign=top;html=1;outlineConnect=0;" vertex="1" parent="1">
          <mxGeometry x="80" y="100" width="30" height="60" as="geometry" />
        </mxCell>
        <mxCell id="AKbCDTZjzxve1V6x1qqr-11" style="edgeStyle=orthogonalEdgeStyle;rounded=0;orthogonalLoop=1;jettySize=auto;html=1;entryX=0;entryY=0.5;entryDx=0;entryDy=0;curved=1;" edge="1" parent="1" source="AKbCDTZjzxve1V6x1qqr-4" target="AKbCDTZjzxve1V6x1qqr-8">
          <mxGeometry relative="1" as="geometry" />
        </mxCell>
        <mxCell id="AKbCDTZjzxve1V6x1qqr-13" style="edgeStyle=orthogonalEdgeStyle;rounded=0;orthogonalLoop=1;jettySize=auto;html=1;curved=1;" edge="1" parent="1" source="AKbCDTZjzxve1V6x1qqr-4" target="AKbCDTZjzxve1V6x1qqr-10">
          <mxGeometry relative="1" as="geometry" />
        </mxCell>
        <mxCell id="AKbCDTZjzxve1V6x1qqr-20" style="edgeStyle=orthogonalEdgeStyle;rounded=0;orthogonalLoop=1;jettySize=auto;html=1;" edge="1" parent="1">
          <mxGeometry relative="1" as="geometry">
            <mxPoint x="94.5" y="190" as="targetPoint" />
            <mxPoint x="94.5" y="350" as="sourcePoint" />
            <Array as="points">
              <mxPoint x="94.5" y="270" />
              <mxPoint x="95.5" y="270" />
            </Array>
          </mxGeometry>
        </mxCell>
        <mxCell id="AKbCDTZjzxve1V6x1qqr-4" value="Gerente" style="shape=umlActor;verticalLabelPosition=bottom;verticalAlign=top;html=1;outlineConnect=0;" vertex="1" parent="1">
          <mxGeometry x="80" y="370" width="30" height="60" as="geometry" />
        </mxCell>
        <mxCell id="AKbCDTZjzxve1V6x1qqr-14" style="edgeStyle=orthogonalEdgeStyle;rounded=0;orthogonalLoop=1;jettySize=auto;html=1;entryX=1;entryY=0.5;entryDx=0;entryDy=0;curved=1;" edge="1" parent="1" source="AKbCDTZjzxve1V6x1qqr-5" target="AKbCDTZjzxve1V6x1qqr-9">
          <mxGeometry relative="1" as="geometry" />
        </mxCell>
        <mxCell id="AKbCDTZjzxve1V6x1qqr-15" style="edgeStyle=orthogonalEdgeStyle;rounded=0;orthogonalLoop=1;jettySize=auto;html=1;entryX=1;entryY=0.5;entryDx=0;entryDy=0;curved=1;" edge="1" parent="1" source="AKbCDTZjzxve1V6x1qqr-5" target="AKbCDTZjzxve1V6x1qqr-7">
          <mxGeometry relative="1" as="geometry" />
        </mxCell>
        <mxCell id="AKbCDTZjzxve1V6x1qqr-5" value="Central&lt;div&gt;de&lt;/div&gt;&lt;div&gt;Cobro&lt;/div&gt;" style="shape=umlActor;verticalLabelPosition=bottom;verticalAlign=top;html=1;outlineConnect=0;" vertex="1" parent="1">
          <mxGeometry x="750" y="170" width="30" height="60" as="geometry" />
        </mxCell>
        <mxCell id="AKbCDTZjzxve1V6x1qqr-18" value="extends" style="text;html=1;align=center;verticalAlign=middle;resizable=0;points=[];autosize=1;strokeColor=none;fillColor=none;" vertex="1" parent="1">
          <mxGeometry x="435" y="98" width="70" height="30" as="geometry" />
        </mxCell>
        <mxCell id="AKbCDTZjzxve1V6x1qqr-19" value="extends" style="text;html=1;align=center;verticalAlign=middle;resizable=0;points=[];autosize=1;strokeColor=none;fillColor=none;" vertex="1" parent="1">
          <mxGeometry x="435" y="298" width="70" height="30" as="geometry" />
        </mxCell>
        <mxCell id="AKbCDTZjzxve1V6x1qqr-21" value="Nombre" style="swimlane;fontStyle=0;childLayout=stackLayout;horizontal=1;startSize=30;horizontalStack=0;resizeParent=1;resizeParentMax=0;resizeLast=0;collapsible=1;marginBottom=0;whiteSpace=wrap;html=1;" vertex="1" parent="1">
          <mxGeometry x="160" y="590" width="140" height="60" as="geometry" />
        </mxCell>
        <mxCell id="AKbCDTZjzxve1V6x1qqr-22" value="Descripción" style="text;html=1;align=center;verticalAlign=middle;resizable=0;points=[];autosize=1;strokeColor=none;fillColor=none;" vertex="1" parent="AKbCDTZjzxve1V6x1qqr-21">
          <mxGeometry y="30" width="140" height="30" as="geometry" />
        </mxCell>
        <mxCell id="AKbCDTZjzxve1V6x1qqr-23" value="Realizar Pago" style="swimlane;fontStyle=0;childLayout=stackLayout;horizontal=1;startSize=30;horizontalStack=0;resizeParent=1;resizeParentMax=0;resizeLast=0;collapsible=1;marginBottom=0;whiteSpace=wrap;html=1;" vertex="1" parent="1">
          <mxGeometry x="300" y="590" width="460" height="60" as="geometry" />
        </mxCell>
        <mxCell id="AKbCDTZjzxve1V6x1qqr-33" value="Este CU especifica la manera en la que un empleado realiza un pago de un cliente" style="text;html=1;align=center;verticalAlign=middle;resizable=0;points=[];autosize=1;strokeColor=none;fillColor=none;" vertex="1" parent="AKbCDTZjzxve1V6x1qqr-23">
          <mxGeometry y="30" width="460" height="30" as="geometry" />
        </mxCell>
        <mxCell id="AKbCDTZjzxve1V6x1qqr-24" value="Actores" style="swimlane;fontStyle=0;childLayout=stackLayout;horizontal=1;startSize=30;horizontalStack=0;resizeParent=1;resizeParentMax=0;resizeLast=0;collapsible=1;marginBottom=0;whiteSpace=wrap;html=1;" vertex="1" parent="1">
          <mxGeometry x="160" y="650" width="140" height="60" as="geometry" />
        </mxCell>
        <mxCell id="AKbCDTZjzxve1V6x1qqr-25" value="Pre-condiciones" style="text;html=1;align=center;verticalAlign=middle;resizable=0;points=[];autosize=1;strokeColor=none;fillColor=none;" vertex="1" parent="AKbCDTZjzxve1V6x1qqr-24">
          <mxGeometry y="30" width="140" height="30" as="geometry" />
        </mxCell>
        <mxCell id="AKbCDTZjzxve1V6x1qqr-26" value="Empleado" style="swimlane;fontStyle=0;childLayout=stackLayout;horizontal=1;startSize=30;horizontalStack=0;resizeParent=1;resizeParentMax=0;resizeLast=0;collapsible=1;marginBottom=0;whiteSpace=wrap;html=1;" vertex="1" parent="1">
          <mxGeometry x="300" y="650" width="460" height="60" as="geometry" />
        </mxCell>
        <mxCell id="AKbCDTZjzxve1V6x1qqr-27" value="Curso Normal" style="swimlane;fontStyle=0;childLayout=stackLayout;horizontal=1;startSize=30;horizontalStack=0;resizeParent=1;resizeParentMax=0;resizeLast=0;collapsible=1;marginBottom=0;whiteSpace=wrap;html=1;" vertex="1" parent="1">
          <mxGeometry x="160" y="710" width="140" height="190" as="geometry" />
        </mxCell>
        <mxCell id="AKbCDTZjzxve1V6x1qqr-28" value="Acciones del Actor" style="swimlane;fontStyle=0;childLayout=stackLayout;horizontal=1;startSize=30;horizontalStack=0;resizeParent=1;resizeParentMax=0;resizeLast=0;collapsible=1;marginBottom=0;whiteSpace=wrap;html=1;" vertex="1" parent="1">
          <mxGeometry x="300" y="710" width="230" height="110" as="geometry" />
        </mxCell>
        <mxCell id="AKbCDTZjzxve1V6x1qqr-35" value="1. El empleado selecciona la opcion&lt;div&gt;Realizar Pago&lt;/div&gt;" style="text;html=1;align=center;verticalAlign=middle;resizable=0;points=[];autosize=1;strokeColor=none;fillColor=none;" vertex="1" parent="AKbCDTZjzxve1V6x1qqr-28">
          <mxGeometry y="30" width="230" height="40" as="geometry" />
        </mxCell>
        <mxCell id="AKbCDTZjzxve1V6x1qqr-37" value="2. El Empleado ingresa el codigo de&lt;div&gt;pago solicitado&lt;/div&gt;" style="text;html=1;align=center;verticalAlign=middle;resizable=0;points=[];autosize=1;strokeColor=none;fillColor=none;" vertex="1" parent="AKbCDTZjzxve1V6x1qqr-28">
          <mxGeometry y="70" width="230" height="40" as="geometry" />
        </mxCell>
        <mxCell id="AKbCDTZjzxve1V6x1qqr-29" value="Acciones del Actor" style="swimlane;fontStyle=0;childLayout=stackLayout;horizontal=1;startSize=30;horizontalStack=0;resizeParent=1;resizeParentMax=0;resizeLast=0;collapsible=1;marginBottom=0;whiteSpace=wrap;html=1;" vertex="1" parent="1">
          <mxGeometry x="530" y="710" width="235" height="140" as="geometry" />
        </mxCell>
        <mxCell id="AKbCDTZjzxve1V6x1qqr-36" value="2. EL sistema solicita ingresar el codigo&lt;div&gt;de pago electronico&lt;/div&gt;" style="text;html=1;align=center;verticalAlign=middle;resizable=0;points=[];autosize=1;strokeColor=none;fillColor=none;" vertex="1" parent="AKbCDTZjzxve1V6x1qqr-29">
          <mxGeometry y="30" width="235" height="40" as="geometry" />
        </mxCell>
        <mxCell id="AKbCDTZjzxve1V6x1qqr-38" value="3. El sistema ejecuta el CU Rcuperar Datos." style="text;html=1;align=center;verticalAlign=middle;resizable=0;points=[];autosize=1;strokeColor=none;fillColor=none;" vertex="1" parent="AKbCDTZjzxve1V6x1qqr-29">
          <mxGeometry y="70" width="235" height="30" as="geometry" />
        </mxCell>
        <mxCell id="AKbCDTZjzxve1V6x1qqr-39" value="4. El sistema verifica que la factura&lt;div&gt;no esta venciday cobra el monto original&lt;/div&gt;" style="text;html=1;align=center;verticalAlign=middle;resizable=0;points=[];autosize=1;strokeColor=none;fillColor=none;" vertex="1" parent="AKbCDTZjzxve1V6x1qqr-29">
          <mxGeometry y="100" width="235" height="40" as="geometry" />
        </mxCell>
        <mxCell id="AKbCDTZjzxve1V6x1qqr-30" value="Curso Alterno" style="swimlane;fontStyle=0;childLayout=stackLayout;horizontal=1;startSize=90;horizontalStack=0;resizeParent=1;resizeParentMax=0;resizeLast=0;collapsible=1;marginBottom=0;whiteSpace=wrap;html=1;" vertex="1" parent="1">
          <mxGeometry x="160" y="900" width="140" height="120" as="geometry" />
        </mxCell>
        <mxCell id="AKbCDTZjzxve1V6x1qqr-31" value="Post-condición" style="text;html=1;align=center;verticalAlign=middle;resizable=0;points=[];autosize=1;strokeColor=none;fillColor=none;" vertex="1" parent="AKbCDTZjzxve1V6x1qqr-30">
          <mxGeometry y="90" width="140" height="30" as="geometry" />
        </mxCell>
        <mxCell id="AKbCDTZjzxve1V6x1qqr-32" value="Paso ALT 3: Falla en la recuperacion de los datos. Se informa. Fin CU&lt;div&gt;Paso ALT4 : El sistema verifica que la factura vencio solo su 1er vencimiento. Se aplica un recargo al monto original y se cobra la factura. Fin CU&lt;/div&gt;&lt;div&gt;Paso ALT 4: El sistema verifca q la factura vencio su 2do vencimiento. Se informa. Fin CU.&lt;/div&gt;" style="swimlane;fontStyle=0;childLayout=stackLayout;horizontal=1;startSize=90;horizontalStack=0;resizeParent=1;resizeParentMax=0;resizeLast=0;collapsible=1;marginBottom=0;whiteSpace=wrap;html=1;" vertex="1" parent="1">
          <mxGeometry x="300" y="900" width="460" height="120" as="geometry" />
        </mxCell>
        <mxCell id="AKbCDTZjzxve1V6x1qqr-34" value="----" style="text;html=1;align=center;verticalAlign=middle;resizable=0;points=[];autosize=1;strokeColor=none;fillColor=none;" vertex="1" parent="1">
          <mxGeometry x="360" y="678" width="40" height="30" as="geometry" />
        </mxCell>
        <mxCell id="AKbCDTZjzxve1V6x1qqr-41" value="Se realizo el pago de una factura" style="text;html=1;align=center;verticalAlign=middle;resizable=0;points=[];autosize=1;strokeColor=none;fillColor=none;" vertex="1" parent="1">
          <mxGeometry x="410" y="988" width="200" height="30" as="geometry" />
        </mxCell>
        <mxCell id="AKbCDTZjzxve1V6x1qqr-42" value="Nombre" style="swimlane;fontStyle=0;childLayout=stackLayout;horizontal=1;startSize=30;horizontalStack=0;resizeParent=1;resizeParentMax=0;resizeLast=0;collapsible=1;marginBottom=0;whiteSpace=wrap;html=1;" vertex="1" parent="1">
          <mxGeometry x="160" y="1050" width="140" height="60" as="geometry" />
        </mxCell>
        <mxCell id="AKbCDTZjzxve1V6x1qqr-43" value="Descripción" style="text;html=1;align=center;verticalAlign=middle;resizable=0;points=[];autosize=1;strokeColor=none;fillColor=none;" vertex="1" parent="AKbCDTZjzxve1V6x1qqr-42">
          <mxGeometry y="30" width="140" height="30" as="geometry" />
        </mxCell>
        <mxCell id="AKbCDTZjzxve1V6x1qqr-44" value="Recuperar Datos" style="swimlane;fontStyle=0;childLayout=stackLayout;horizontal=1;startSize=30;horizontalStack=0;resizeParent=1;resizeParentMax=0;resizeLast=0;collapsible=1;marginBottom=0;whiteSpace=wrap;html=1;" vertex="1" parent="1">
          <mxGeometry x="300" y="1050" width="460" height="60" as="geometry" />
        </mxCell>
        <mxCell id="AKbCDTZjzxve1V6x1qqr-54" value="Este caso de uso especifica la manera en la que se recuperan los datos de una factura" style="text;html=1;align=center;verticalAlign=middle;resizable=0;points=[];autosize=1;strokeColor=none;fillColor=none;" vertex="1" parent="AKbCDTZjzxve1V6x1qqr-44">
          <mxGeometry y="30" width="460" height="30" as="geometry" />
        </mxCell>
        <mxCell id="AKbCDTZjzxve1V6x1qqr-45" value="Actores" style="swimlane;fontStyle=0;childLayout=stackLayout;horizontal=1;startSize=30;horizontalStack=0;resizeParent=1;resizeParentMax=0;resizeLast=0;collapsible=1;marginBottom=0;whiteSpace=wrap;html=1;" vertex="1" parent="1">
          <mxGeometry x="160" y="1110" width="140" height="60" as="geometry" />
        </mxCell>
        <mxCell id="AKbCDTZjzxve1V6x1qqr-46" value="Pre-condiciones" style="text;html=1;align=center;verticalAlign=middle;resizable=0;points=[];autosize=1;strokeColor=none;fillColor=none;" vertex="1" parent="AKbCDTZjzxve1V6x1qqr-45">
          <mxGeometry y="30" width="140" height="30" as="geometry" />
        </mxCell>
        <mxCell id="AKbCDTZjzxve1V6x1qqr-47" value="Central de Cobro" style="swimlane;fontStyle=0;childLayout=stackLayout;horizontal=1;startSize=30;horizontalStack=0;resizeParent=1;resizeParentMax=0;resizeLast=0;collapsible=1;marginBottom=0;whiteSpace=wrap;html=1;" vertex="1" parent="1">
          <mxGeometry x="300" y="1110" width="460" height="60" as="geometry" />
        </mxCell>
        <mxCell id="AKbCDTZjzxve1V6x1qqr-55" value="Se debe haber ejectuado el CU Realizar Pago" style="text;html=1;align=center;verticalAlign=middle;resizable=0;points=[];autosize=1;strokeColor=none;fillColor=none;" vertex="1" parent="AKbCDTZjzxve1V6x1qqr-47">
          <mxGeometry y="30" width="460" height="30" as="geometry" />
        </mxCell>
        <mxCell id="AKbCDTZjzxve1V6x1qqr-48" value="Curso Normal" style="swimlane;fontStyle=0;childLayout=stackLayout;horizontal=1;startSize=30;horizontalStack=0;resizeParent=1;resizeParentMax=0;resizeLast=0;collapsible=1;marginBottom=0;whiteSpace=wrap;html=1;" vertex="1" parent="1">
          <mxGeometry x="160" y="1170" width="140" height="190" as="geometry" />
        </mxCell>
        <mxCell id="AKbCDTZjzxve1V6x1qqr-49" value="Acciones del Actor" style="swimlane;fontStyle=0;childLayout=stackLayout;horizontal=1;startSize=30;horizontalStack=0;resizeParent=1;resizeParentMax=0;resizeLast=0;collapsible=1;marginBottom=0;whiteSpace=wrap;html=1;" vertex="1" parent="1">
          <mxGeometry x="300" y="1170" width="230" height="190" as="geometry" />
        </mxCell>
        <mxCell id="AKbCDTZjzxve1V6x1qqr-57" value="2. La central valida el token y establece&lt;div&gt;la conexion con el sistema&lt;/div&gt;" style="text;html=1;align=center;verticalAlign=middle;resizable=0;points=[];autosize=1;strokeColor=none;fillColor=none;" vertex="1" parent="AKbCDTZjzxve1V6x1qqr-49">
          <mxGeometry y="30" width="230" height="40" as="geometry" />
        </mxCell>
        <mxCell id="AKbCDTZjzxve1V6x1qqr-59" value="4. El servidor solicita un codigo&lt;div&gt;de pago electronico&lt;/div&gt;" style="text;html=1;align=center;verticalAlign=middle;resizable=0;points=[];autosize=1;strokeColor=none;fillColor=none;" vertex="1" parent="AKbCDTZjzxve1V6x1qqr-49">
          <mxGeometry y="70" width="230" height="40" as="geometry" />
        </mxCell>
        <mxCell id="AKbCDTZjzxve1V6x1qqr-61" value="6. La central recibe el codigo y verifica la&amp;nbsp;&lt;div&gt;existencia de&lt;span style=&quot;background-color: initial;&quot;&gt;la factura correspondiente.&lt;/span&gt;&lt;/div&gt;" style="text;html=1;align=center;verticalAlign=middle;resizable=0;points=[];autosize=1;strokeColor=none;fillColor=none;" vertex="1" parent="AKbCDTZjzxve1V6x1qqr-49">
          <mxGeometry y="110" width="230" height="40" as="geometry" />
        </mxCell>
        <mxCell id="AKbCDTZjzxve1V6x1qqr-62" value="7. La central envia los datos de la factura&lt;div&gt;solicitada&lt;/div&gt;" style="text;html=1;align=center;verticalAlign=middle;resizable=0;points=[];autosize=1;strokeColor=none;fillColor=none;" vertex="1" parent="AKbCDTZjzxve1V6x1qqr-49">
          <mxGeometry y="150" width="230" height="40" as="geometry" />
        </mxCell>
        <mxCell id="AKbCDTZjzxve1V6x1qqr-50" value="Acciones del Actor" style="swimlane;fontStyle=0;childLayout=stackLayout;horizontal=1;startSize=30;horizontalStack=0;resizeParent=1;resizeParentMax=0;resizeLast=0;collapsible=1;marginBottom=0;whiteSpace=wrap;html=1;" vertex="1" parent="1">
          <mxGeometry x="530" y="1170" width="240" height="190" as="geometry" />
        </mxCell>
        <mxCell id="AKbCDTZjzxve1V6x1qqr-56" value="1. El sistema envia un token a la central de&lt;div&gt;&amp;nbsp;cobro&lt;/div&gt;" style="text;html=1;align=center;verticalAlign=middle;resizable=0;points=[];autosize=1;strokeColor=none;fillColor=none;" vertex="1" parent="AKbCDTZjzxve1V6x1qqr-50">
          <mxGeometry y="30" width="240" height="40" as="geometry" />
        </mxCell>
        <mxCell id="AKbCDTZjzxve1V6x1qqr-58" value="3. El sistema solicita la servidor&lt;div&gt;recuperar los datos de una factura&lt;/div&gt;" style="text;html=1;align=center;verticalAlign=middle;resizable=0;points=[];autosize=1;strokeColor=none;fillColor=none;" vertex="1" parent="AKbCDTZjzxve1V6x1qqr-50">
          <mxGeometry y="70" width="240" height="40" as="geometry" />
        </mxCell>
        <mxCell id="AKbCDTZjzxve1V6x1qqr-60" value="5. El sistema envia el codigo de pago&lt;div&gt;electronico a la central&lt;/div&gt;" style="text;html=1;align=center;verticalAlign=middle;resizable=0;points=[];autosize=1;strokeColor=none;fillColor=none;" vertex="1" parent="AKbCDTZjzxve1V6x1qqr-50">
          <mxGeometry y="110" width="240" height="40" as="geometry" />
        </mxCell>
        <mxCell id="AKbCDTZjzxve1V6x1qqr-63" value="8. El sistema recibe los datos y cierra la&lt;div&gt;conexion con la central&lt;/div&gt;" style="text;html=1;align=center;verticalAlign=middle;resizable=0;points=[];autosize=1;strokeColor=none;fillColor=none;" vertex="1" parent="AKbCDTZjzxve1V6x1qqr-50">
          <mxGeometry y="150" width="240" height="40" as="geometry" />
        </mxCell>
        <mxCell id="AKbCDTZjzxve1V6x1qqr-51" value="Curso Alterno" style="swimlane;fontStyle=0;childLayout=stackLayout;horizontal=1;startSize=30;horizontalStack=0;resizeParent=1;resizeParentMax=0;resizeLast=0;collapsible=1;marginBottom=0;whiteSpace=wrap;html=1;" vertex="1" parent="1">
          <mxGeometry x="160" y="1360" width="140" height="60" as="geometry" />
        </mxCell>
        <mxCell id="AKbCDTZjzxve1V6x1qqr-52" value="Post-condición" style="text;html=1;align=center;verticalAlign=middle;resizable=0;points=[];autosize=1;strokeColor=none;fillColor=none;" vertex="1" parent="AKbCDTZjzxve1V6x1qqr-51">
          <mxGeometry y="30" width="140" height="30" as="geometry" />
        </mxCell>
        <mxCell id="AKbCDTZjzxve1V6x1qqr-53" value="" style="swimlane;fontStyle=0;childLayout=stackLayout;horizontal=1;startSize=30;horizontalStack=0;resizeParent=1;resizeParentMax=0;resizeLast=0;collapsible=1;marginBottom=0;whiteSpace=wrap;html=1;" vertex="1" parent="1">
          <mxGeometry x="300" y="1360" width="460" height="60" as="geometry" />
        </mxCell>
      </root>
    </mxGraphModel>
  </diagram>
</mxfile>
